<?xml version="1.0" standalone="no"?>
<!DOCTYPE svg PUBLIC "-//W3C//DTD SVG 20010904//EN"
 "http://www.w3.org/TR/2001/REC-SVG-20010904/DTD/svg10.dtd">
<svg version="1.0" xmlns="http://www.w3.org/2000/svg"
 width="2048.000000pt" height="2048.000000pt" viewBox="0 0 2048.000000 2048.000000"
 preserveAspectRatio="xMidYMid meet">

<g transform="translate(0.000000,2048.000000) scale(0.100000,-0.100000)"
fill="#4ECDA4" stroke="none">
<path d="M10180 15183 c-117 -8 -320 -35 -436 -58 -429 -86 -767 -299 -969
-608 -145 -223 -226 -468 -271 -817 -16 -120 -18 -254 -20 -1175 -2 -907 -4
-1054 -19 -1148 -19 -130 -45 -217 -92 -316 -48 -102 -161 -215 -257 -260 -85
-40 -186 -67 -286 -75 -112 -10 -155 -24 -195 -64 -61 -62 -67 -100 -63 -429
3 -269 4 -291 24 -333 41 -87 89 -113 224 -125 165 -14 272 -51 377 -128 135
-101 214 -244 260 -476 14 -65 17 -257 23 -1286 8 -1313 10 -1364 66 -1612 56
-250 148 -465 268 -624 281 -373 761 -589 1366 -616 133 -5 149 -4 192 15 58
25 95 79 108 153 10 61 10 600 -1 690 -8 71 -44 130 -91 155 -21 11 -84 22
-173 30 -263 24 -416 84 -542 209 -111 110 -171 251 -204 480 -8 55 -14 437
-19 1220 -7 1086 -8 1145 -28 1250 -51 278 -105 421 -230 611 -107 163 -244
284 -421 374 l-64 32 70 37 c258 136 455 366 567 665 34 89 53 165 78 301 19
104 21 168 28 1140 6 889 9 1044 23 1130 69 412 293 602 742 630 55 3 114 8
132 11 42 6 88 45 116 98 21 40 22 49 22 391 0 255 -3 361 -13 392 -15 49 -53
98 -91 118 -31 16 -121 24 -201 18z"/>
<path d="M14301 15180 c-70 -17 -123 -78 -141 -163 -6 -33 -9 -176 -8 -387 l3
-335 27 -47 c38 -63 90 -88 189 -88 153 -1 339 -39 444 -92 182 -93 281 -233
338 -483 20 -87 21 -128 27 -1130 7 -1126 6 -1096 64 -1341 88 -364 311 -665
610 -823 33 -17 62 -33 64 -36 2 -2 -16 -13 -40 -26 -158 -79 -327 -223 -417
-353 -118 -171 -186 -331 -226 -529 -48 -240 -47 -228 -55 -1432 -7 -1111 -8
-1153 -28 -1245 -42 -196 -97 -304 -204 -405 -115 -109 -267 -165 -503 -186
-174 -15 -178 -16 -223 -54 -66 -57 -67 -65 -67 -475 l0 -366 26 -49 c30 -60
74 -91 137 -101 65 -10 354 11 487 35 419 77 770 270 995 549 107 132 214 355
265 553 80 309 85 398 85 1644 0 628 4 1115 10 1195 27 353 140 574 348 683
84 45 150 62 305 82 131 18 162 29 201 75 43 52 47 89 44 423 -3 311 -3 312
-28 355 -37 64 -71 81 -207 97 -237 30 -329 69 -448 189 -96 97 -135 171 -175
331 -48 188 -50 249 -50 1263 0 561 -4 1003 -10 1083 -55 707 -322 1157 -835
1404 -198 95 -405 149 -665 174 -169 16 -302 21 -339 11z"/>
<path d="M3839 12987 c-25 -7 -66 -25 -91 -40 -59 -34 -258 -244 -295 -311
-25 -46 -28 -60 -28 -151 0 -86 3 -107 24 -148 26 -51 117 -143 271 -278 52
-45 158 -139 235 -209 77 -69 289 -258 470 -420 182 -162 485 -434 675 -605
272 -245 575 -516 643 -575 4 -4 -93 -96 -215 -206 -123 -109 -250 -224 -283
-255 -33 -30 -163 -147 -290 -259 -126 -113 -277 -247 -335 -300 -58 -52 -184
-165 -280 -250 -687 -612 -839 -751 -869 -799 -63 -101 -72 -211 -24 -314 52
-109 227 -298 322 -344 62 -31 180 -42 248 -24 58 16 142 75 258 182 55 51
226 205 380 342 395 353 700 625 830 742 62 55 357 318 656 584 299 266 570
509 603 540 124 118 172 232 164 385 -4 72 -10 95 -41 158 -20 40 -53 92 -74
115 -21 23 -169 158 -329 300 -304 270 -554 494 -1040 928 -160 143 -364 326
-455 406 -90 80 -227 201 -303 270 -76 68 -162 144 -190 168 -28 24 -98 87
-156 141 -162 150 -201 181 -257 207 -63 29 -161 38 -224 20z"/>
<path d="M10863 8050 c-62 -14 -101 -48 -133 -115 -18 -37 -20 -65 -20 -335 0
-176 4 -310 11 -333 5 -21 24 -53 40 -72 61 -69 -24 -65 1556 -65 1046 0 1436
3 1470 12 60 15 116 70 131 129 8 29 11 143 9 339 -2 283 -3 297 -24 336 -28
52 -72 90 -121 104 -44 12 -2868 12 -2919 0z"/>
</g>
</svg>
